<svg width="512" height="512" viewBox="0 0 512 512" fill="none" xmlns="http://www.w3.org/2000/svg">
<path d="M196 362H176C156.699 362 141 377.699 141 397V477C141 496.301 156.699 512 176 512H196C215.301 512 231 496.301 231 477V397C231 377.699 215.301 362 196 362ZM201 477C201 479.758 198.758 482 196 482H176C173.242 482 171 479.758 171 477V397C171 394.242 173.242 392 176 392H196C198.758 392 201 394.242 201 397V477Z" fill="white"/>
<path d="M76 482H61V377C61 368.715 54.2852 362 46 362H16C7.71484 362 1 368.715 1 377C1 385.285 7.71484 392 16 392H31V482H16C7.71484 482 1 488.715 1 497C1 505.285 7.71484 512 16 512H76C84.2852 512 91 505.285 91 497C91 488.715 84.2852 482 76 482Z" fill="white"/>
<path d="M476 362H456C436.699 362 421 377.699 421 397V477C421 496.301 436.699 512 456 512H476C495.301 512 511 496.301 511 477V397C511 377.699 495.301 362 476 362ZM481 477C481 479.758 478.758 482 476 482H456C453.242 482 451 479.758 451 477V397C451 394.242 453.242 392 456 392H476C478.758 392 481 394.242 481 397V477Z" fill="white"/>
<path d="M356 482H341V377C341 368.715 334.285 362 326 362H296C287.715 362 281 368.715 281 377C281 385.285 287.715 392 296 392H311V482H296C287.715 482 281 488.715 281 497C281 505.285 287.715 512 296 512H356C364.285 512 371 505.285 371 497C371 488.715 364.285 482 356 482Z" fill="white"/>
<path d="M196 181H176C156.699 181 141 196.699 141 216V296C141 315.301 156.699 331 176 331H196C215.301 331 231 315.301 231 296V216C231 196.699 215.301 181 196 181ZM201 296C201 298.758 198.758 301 196 301H176C173.242 301 171 298.758 171 296V216C171 213.242 173.242 211 176 211H196C198.758 211 201 213.242 201 216V296Z" fill="white"/>
<path d="M76 301H61V196C61 187.715 54.2852 181 46 181H16C7.71484 181 1 187.715 1 196C1 204.285 7.71484 211 16 211H31V301H16C7.71484 301 1 307.715 1 316C1 324.285 7.71484 331 16 331H76C84.2852 331 91 324.285 91 316C91 307.715 84.2852 301 76 301Z" fill="white"/>
<path d="M336 181H316C296.699 181 281 196.699 281 216V296C281 315.301 296.699 331 316 331H336C355.301 331 371 315.301 371 296V216C371 196.699 355.301 181 336 181ZM341 296C341 298.758 338.758 301 336 301H316C313.242 301 311 298.758 311 296V216C311 213.242 313.242 211 316 211H336C338.758 211 341 213.242 341 216V296Z" fill="white"/>
<path d="M496 301H481V196C481 187.715 474.285 181 466 181H436C427.715 181 421 187.715 421 196C421 204.285 427.715 211 436 211H451V301H436C427.715 301 421 307.715 421 316C421 324.285 427.715 331 436 331H496C504.285 331 511 324.285 511 316C511 307.715 504.285 301 496 301Z" fill="white"/>
<path d="M56 0H36C16.6992 0 1 15.6992 1 35V115C1 134.301 16.6992 150 36 150H56C75.3008 150 91 134.301 91 115V35C91 15.6992 75.3008 0 56 0ZM61 115C61 117.758 58.7578 120 56 120H36C33.2422 120 31 117.758 31 115V35C31 32.2422 33.2422 30 36 30H56C58.7578 30 61 32.2422 61 35V115Z" fill="white"/>
<path d="M216 120H201V15C201 6.71484 194.285 0 186 0H156C147.715 0 141 6.71484 141 15C141 23.2852 147.715 30 156 30H171V120H156C147.715 120 141 126.715 141 135C141 143.285 147.715 150 156 150H216C224.285 150 231 143.285 231 135C231 126.715 224.285 120 216 120Z" fill="white"/>
<path d="M476 0H456C436.699 0 421 15.6992 421 35V115C421 134.301 436.699 150 456 150H476C495.301 150 511 134.301 511 115V35C511 15.6992 495.301 0 476 0ZM481 115C481 117.758 478.758 120 476 120H456C453.242 120 451 117.758 451 115V35C451 32.2422 453.242 30 456 30H476C478.758 30 481 32.2422 481 35V115Z" fill="white"/>
<path d="M356 120H341V15C341 6.71484 334.285 0 326 0H296C287.715 0 281 6.71484 281 15C281 23.2852 287.715 30 296 30H311V120H296C287.715 120 281 126.715 281 135C281 143.285 287.715 150 296 150H356C364.285 150 371 143.285 371 135C371 126.715 364.285 120 356 120Z" fill="white"/>
</svg>
