<svg width="127" height="127" viewBox="0 0 127 127" fill="none" xmlns="http://www.w3.org/2000/svg">
<g clip-path="url(#clip0)">
<path d="M121.215 44.2121L86.316 40.9121C84.116 40.7121 82.215 39.3121 81.316 37.2121L68.816 6.91211C66.816 1.91211 59.715 1.91211 57.715 6.91211L45.315 37.2121C44.515 39.3121 42.515 40.7121 40.315 40.9121L5.41501 44.2121C0.215011 44.7121 -1.88499 51.2121 2.01501 54.7121L28.315 77.8121C30.015 79.3121 30.715 81.5121 30.215 83.7121L22.315 116.111C21.115 121.212 26.615 125.411 31.215 122.712L60.315 105.611C62.215 104.511 64.515 104.511 66.415 105.611L95.516 122.712C100.116 125.411 105.616 121.312 104.415 116.111L96.615 83.7121C96.115 81.5121 96.815 79.3121 98.515 77.8121L124.815 54.7121C128.615 51.2121 126.415 44.7121 121.215 44.2121Z" fill="#FFFDFD"/>
</g>
<defs>
<clipPath id="clip0">
<rect width="126.729" height="126.73" fill="white"/>
</clipPath>
</defs>
</svg>
