<svg width="512" height="512" viewBox="0 0 512 512" fill="none" xmlns="http://www.w3.org/2000/svg">
<g clip-path="url(#clip0)">
<path d="M301.881 50.9958L324.31 13.6114C326.861 9.35382 325.487 3.83869 321.229 1.28772C316.962 -1.27224 311.456 0.102052 308.905 4.36864L285.237 43.8189C271.144 38.8068 256.053 35.9324 240.263 35.9324C224.472 35.9324 209.381 38.8068 195.288 43.8189L171.62 4.36864C169.069 0.102052 163.554 -1.26326 159.296 1.28772C155.039 3.83869 153.664 9.35382 156.215 13.6114L178.644 50.9958C135.286 73.4066 105.528 118.588 105.528 170.676C105.528 175.643 109.552 179.658 114.51 179.658H366.015C370.973 179.658 374.997 175.643 374.997 170.676C374.988 118.597 345.239 73.4156 301.881 50.9958ZM123.834 161.694C128.433 101.485 178.895 53.906 240.263 53.906C301.63 53.906 352.092 101.485 356.691 161.694H123.834Z" fill="white"/>
<path d="M302.932 102.078H291.093C287.824 102.078 285.174 104.728 285.174 107.998V119.836C285.174 123.106 287.824 125.756 291.093 125.756H302.941C306.211 125.756 308.86 123.106 308.86 119.836V107.998C308.86 104.728 306.202 102.078 302.932 102.078Z" fill="white"/>
<path d="M189.423 102.078H177.575C174.306 102.078 171.656 104.728 171.656 107.998V119.836C171.656 123.106 174.306 125.756 177.575 125.756H189.423C192.693 125.756 195.342 123.106 195.342 119.836V107.998C195.342 104.728 192.693 102.078 189.423 102.078Z" fill="white"/>
<path d="M366.006 188.64H114.502C109.543 188.64 105.519 192.655 105.519 197.623V378.805C105.519 402.724 125.002 422.18 148.94 422.18H159.413V476.128C159.413 495.907 175.527 512.003 195.342 512.003C215.157 512.003 231.271 495.907 231.271 476.128V422.18H249.236V476.128C249.236 495.907 265.35 512.003 285.165 512.003C304.98 512.003 321.094 495.907 321.094 476.128V422.18H331.568C355.515 422.18 374.988 402.724 374.988 378.805V197.623C374.988 192.655 370.973 188.64 366.006 188.64ZM357.024 378.805C357.024 392.817 345.607 404.216 331.568 404.216H312.112C307.154 404.216 303.13 408.231 303.13 413.198V476.128C303.13 486.008 295.073 494.039 285.165 494.039C275.258 494.039 267.201 485.999 267.201 476.128V413.198C267.201 408.231 263.177 404.216 258.218 404.216H222.289C217.331 404.216 213.307 408.231 213.307 413.198V476.128C213.307 486.008 205.25 494.039 195.342 494.039C185.435 494.039 177.378 485.999 177.378 476.128V413.198C177.378 408.231 173.354 404.216 168.395 404.216H148.949C134.909 404.216 123.484 392.808 123.484 378.805V206.605H357.024V378.805Z" fill="white"/>
<path d="M415.409 188.64C398.073 188.64 383.971 202.761 383.971 220.114V345.795C383.971 363.149 398.073 377.269 415.409 377.269C432.744 377.269 446.847 363.149 446.847 345.795V220.114C446.847 202.761 432.744 188.64 415.409 188.64ZM428.882 345.795C428.882 353.241 422.837 359.304 415.409 359.304C407.98 359.304 401.935 353.241 401.935 345.795V220.114C401.935 212.668 407.98 206.605 415.409 206.605C422.837 206.605 428.882 212.668 428.882 220.114V345.795Z" fill="white"/>
<path d="M65.0989 188.64C47.7631 188.64 33.6609 202.761 33.6609 220.114V345.795C33.6609 363.149 47.7631 377.269 65.0989 377.269C82.4348 377.269 96.537 363.149 96.537 345.795V220.114C96.537 202.761 82.4348 188.64 65.0989 188.64ZM78.5724 345.795C78.5724 353.241 72.5273 359.304 65.0989 359.304C57.6706 359.304 51.6255 353.241 51.6255 345.795V220.114C51.6255 212.668 57.6706 206.605 65.0989 206.605C72.5273 206.605 78.5724 212.668 78.5724 220.114V345.795Z" fill="white"/>
</g>
<defs>
<clipPath id="clip0">
<rect width="512" height="512" fill="white"/>
</clipPath>
</defs>
</svg>
