<svg width="512" height="512" viewBox="0 0 512 512" fill="none" xmlns="http://www.w3.org/2000/svg">
<path d="M319.235 69.1818L301.884 64.4251C299.65 63.6803 297.45 63.9145 295.311 65.1257C293.165 66.3379 291.716 68.1577 290.971 70.5822L186.611 431.785C185.866 434.211 186.099 436.498 187.311 438.64C188.524 440.786 190.339 442.232 192.768 442.976L210.114 447.735C212.352 448.486 214.544 448.251 216.69 447.037C218.836 445.819 220.282 444.005 221.026 441.585L325.389 80.3759C326.133 77.9515 325.902 75.6643 324.688 73.5172C323.474 71.371 321.66 69.9256 319.235 69.1818Z" fill="white"/>
<path d="M162.838 139.692C162.838 137.268 161.904 135.121 160.039 133.257L146.048 119.267C144.183 117.402 142.037 116.467 139.613 116.467C137.188 116.467 135.041 117.403 133.177 119.267L2.79878 249.645C0.930966 251.51 0 253.656 0 256.081C0 258.505 0.933906 260.651 2.79878 262.515L133.176 392.893C135.04 394.761 137.183 395.69 139.612 395.69C142.04 395.69 144.183 394.758 146.047 392.893L160.038 378.911C161.903 377.047 162.837 374.9 162.837 372.473C162.837 370.051 161.903 367.905 160.038 366.041L50.083 256.081L160.039 146.128C161.907 144.264 162.838 142.117 162.838 139.692Z" fill="white"/>
<path d="M509.203 249.642L378.822 119.264C376.958 117.4 374.811 116.464 372.39 116.464C369.962 116.464 367.823 117.4 365.952 119.264L351.967 133.253C350.103 135.118 349.173 137.261 349.173 139.688C349.173 142.116 350.102 144.26 351.967 146.124L461.925 256.08L351.967 366.041C350.103 367.905 349.173 370.052 349.173 372.473C349.173 374.901 350.102 377.047 351.967 378.911L365.952 392.893C367.823 394.761 369.963 395.69 372.39 395.69C374.812 395.69 376.958 394.758 378.822 392.893L509.203 262.516C511.068 260.652 512 258.502 512 256.078C512 253.652 511.068 251.506 509.203 249.642Z" fill="white"/>
</svg>
