<svg width="504" height="507" viewBox="0 0 504 507" fill="none" xmlns="http://www.w3.org/2000/svg">
<path d="M337.115 300.852L262.792 193.497C262.032 192.398 261.018 191.5 259.835 190.88C258.652 190.26 257.336 189.936 256 189.936C254.664 189.936 253.348 190.26 252.165 190.88C250.982 191.5 249.967 192.398 249.208 193.497L174.885 300.852C174.156 301.905 173.681 303.114 173.501 304.383C173.32 305.651 173.437 306.945 173.843 308.16L194.994 371.613H189.935C187.745 371.613 185.645 372.483 184.096 374.032C182.547 375.58 181.677 377.681 181.677 379.871V404.645C181.677 406.835 182.547 408.936 184.096 410.484C185.645 412.033 187.745 412.903 189.935 412.903H198.194V503.742C198.194 505.932 199.064 508.033 200.612 509.581C202.161 511.13 204.261 512 206.452 512H305.548C307.739 512 309.839 511.13 311.388 509.581C312.936 508.033 313.806 505.932 313.806 503.742V412.903H322.064C324.255 412.903 326.355 412.033 327.904 410.484C329.453 408.936 330.323 406.835 330.323 404.645V379.871C330.323 377.681 329.453 375.58 327.904 374.032C326.355 372.483 324.255 371.613 322.064 371.613H317.006L338.157 308.16C338.563 306.945 338.68 305.651 338.499 304.383C338.318 303.114 337.844 301.905 337.115 300.852V300.852ZM256 289.032C257.633 289.032 259.23 289.517 260.588 290.424C261.946 291.331 263.004 292.621 263.629 294.13C264.254 295.639 264.418 297.299 264.099 298.901C263.781 300.503 262.994 301.975 261.839 303.13C260.684 304.285 259.213 305.071 257.611 305.39C256.009 305.708 254.349 305.545 252.84 304.92C251.331 304.295 250.041 303.236 249.134 301.878C248.226 300.52 247.742 298.924 247.742 297.29C247.745 295.101 248.616 293.002 250.164 291.454C251.712 289.906 253.811 289.035 256 289.032V289.032ZM297.29 495.484H214.71V412.903H297.29V495.484ZM313.806 396.387H198.194V388.129H313.806V396.387ZM299.592 371.613H212.408L190.813 306.859L247.742 224.63V272.516C247.746 272.98 247.788 273.442 247.866 273.899C242.335 275.822 237.664 279.641 234.681 284.68C231.698 289.719 230.597 295.651 231.572 301.425C232.546 307.198 235.535 312.44 240.007 316.22C244.478 320 250.145 322.074 256 322.074C261.855 322.074 267.522 320 271.993 316.22C276.465 312.44 279.454 307.198 280.428 301.425C281.403 295.651 280.302 289.719 277.319 284.68C274.336 279.641 269.665 275.822 264.134 273.899C264.212 273.442 264.254 272.98 264.258 272.516V224.63L321.187 306.859L299.592 371.613Z" fill="white"/>
<path d="M503.742 90.8387H470.71C468.519 90.8387 466.419 91.7088 464.87 93.2574C463.322 94.8061 462.452 96.9066 462.452 99.0968V107.427C462.109 107.382 461.765 107.358 461.419 107.355H280.774V99.0968C280.774 96.9066 279.904 94.8061 278.355 93.2574C276.807 91.7088 274.706 90.8387 272.516 90.8387H264.258V49.5484H272.516C274.706 49.5484 276.807 48.6783 278.355 47.1297C279.904 45.581 280.774 43.4805 280.774 41.2903V8.25806C280.774 6.06789 279.904 3.96742 278.355 2.41873C276.807 0.870043 274.706 0 272.516 0H239.484C237.294 0 235.193 0.870043 233.645 2.41873C232.096 3.96742 231.226 6.06789 231.226 8.25806V41.2903C231.226 43.4805 232.096 45.581 233.645 47.1297C235.193 48.6783 237.294 49.5484 239.484 49.5484H247.742V90.8387H239.484C237.294 90.8387 235.193 91.7088 233.645 93.2574C232.096 94.8061 231.226 96.9066 231.226 99.0968V107.355H49.5484V99.0968C49.5484 96.9066 48.6783 94.8061 47.1297 93.2574C45.581 91.7088 43.4805 90.8387 41.2903 90.8387H8.25806C6.06789 90.8387 3.96742 91.7088 2.41873 93.2574C0.870043 94.8061 0 96.9066 0 99.0968V132.129C0 134.319 0.870043 136.42 2.41873 137.968C3.96742 139.517 6.06789 140.387 8.25806 140.387H41.2903C43.4805 140.387 45.581 139.517 47.1297 137.968C48.6783 136.42 49.5484 134.319 49.5484 132.129V123.871H186.075C175.176 131.082 165.434 139.905 157.182 150.039C136.01 175.711 123.871 208.31 123.871 239.484H115.613C113.423 239.484 111.322 240.354 109.774 241.903C108.225 243.451 107.355 245.552 107.355 247.742V280.774C107.355 282.964 108.225 285.065 109.774 286.614C111.322 288.162 113.423 289.032 115.613 289.032H148.645C150.835 289.032 152.936 288.162 154.484 286.614C156.033 285.065 156.903 282.964 156.903 280.774V247.742C156.903 245.552 156.033 243.451 154.484 241.903C152.936 240.354 150.835 239.484 148.645 239.484H140.387C140.387 178.25 187.499 129.951 231.226 124.408V132.129C231.226 134.319 232.096 136.42 233.645 137.968C235.193 139.517 237.294 140.387 239.484 140.387H272.516C274.706 140.387 276.807 139.517 278.355 137.968C279.904 136.42 280.774 134.319 280.774 132.129V124.377C303.133 127.03 324.594 140.428 341.915 162.777C358.772 184.506 369.476 212.645 371.324 239.484H363.355C361.165 239.484 359.064 240.354 357.515 241.903C355.967 243.451 355.097 245.552 355.097 247.742V280.774C355.097 282.964 355.967 285.065 357.515 286.614C359.064 288.162 361.165 289.032 363.355 289.032H396.387C398.577 289.032 400.678 288.162 402.226 286.614C403.775 285.065 404.645 282.964 404.645 280.774V247.742C404.645 245.552 403.775 243.451 402.226 241.903C400.678 240.354 398.577 239.484 396.387 239.484H387.871C386.065 208.815 374.307 177.579 354.973 152.65C346.47 141.488 336.222 131.77 324.625 123.871H461.419C461.765 123.868 462.109 123.844 462.452 123.799V132.129C462.452 134.319 463.322 136.42 464.87 137.968C466.419 139.517 468.519 140.387 470.71 140.387H503.742C505.932 140.387 508.033 139.517 509.581 137.968C511.13 136.42 512 134.319 512 132.129V99.0968C512 96.9066 511.13 94.8061 509.581 93.2574C508.033 91.7088 505.932 90.8387 503.742 90.8387ZM33.0323 123.871H16.5161V107.355H33.0323V123.871ZM140.387 272.516H123.871V256H140.387V272.516ZM247.742 16.5161H264.258V33.0323H247.742V16.5161ZM264.258 123.871H247.742V107.355H264.258V123.871ZM371.613 256H388.129V272.516H371.613V256ZM495.484 123.871H478.968V107.355H495.484V123.871Z" fill="white"/>
</svg>
