<svg width="300" height="293" viewBox="0 0 300 293" fill="none" xmlns="http://www.w3.org/2000/svg">
<path d="M100.343 235.739C100.343 236.95 98.9516 237.918 97.1976 237.918C95.2016 238.1 93.8105 237.131 93.8105 235.739C93.8105 234.528 95.2016 233.559 96.9557 233.559C98.7702 233.378 100.343 234.346 100.343 235.739ZM81.5323 233.015C81.1089 234.225 82.3186 235.618 84.1331 235.981C85.7057 236.586 87.5202 235.981 87.8831 234.77C88.246 233.559 87.0968 232.167 85.2823 231.622C83.7097 231.198 81.9557 231.804 81.5323 233.015ZM108.266 231.985C106.512 232.409 105.302 233.559 105.484 234.952C105.665 236.163 107.238 236.95 109.052 236.526C110.806 236.102 112.016 234.952 111.835 233.741C111.653 232.591 110.02 231.804 108.266 231.985ZM148.065 0C64.1734 0 0 63.7476 0 147.715C0 214.853 42.2177 272.304 102.52 292.524C110.262 293.917 112.984 289.134 112.984 285.199C112.984 281.446 112.802 260.741 112.802 248.028C112.802 248.028 70.4637 257.109 61.5726 229.988C61.5726 229.988 54.6774 212.371 44.7581 207.83C44.7581 207.83 30.9073 198.326 45.7258 198.507C45.7258 198.507 60.7863 199.718 69.0726 214.126C82.3186 237.494 104.516 230.775 113.165 226.779C114.556 217.093 118.488 210.373 122.843 206.377C89.0323 202.624 54.9194 197.72 54.9194 139.482C54.9194 122.834 59.5161 114.479 69.1936 103.824C67.621 99.8893 62.4798 83.6649 70.7661 62.7184C83.4073 58.7834 112.5 79.0639 112.5 79.0639C124.597 75.6737 137.601 73.9181 150.484 73.9181C163.367 73.9181 176.371 75.6737 188.468 79.0639C188.468 79.0639 217.561 58.7228 230.202 62.7184C238.488 83.7254 233.347 99.8893 231.774 103.824C241.452 114.54 247.379 122.894 247.379 139.482C247.379 197.902 211.754 202.563 177.944 206.377C183.508 211.16 188.226 220.241 188.226 234.468C188.226 254.869 188.044 280.114 188.044 285.078C188.044 289.013 190.827 293.796 198.508 292.403C258.992 272.304 300 214.853 300 147.715C300 63.7476 231.956 0 148.065 0ZM58.7903 208.799C58.004 209.404 58.1855 210.797 59.2137 211.947C60.1815 212.916 61.5726 213.339 62.3589 212.552C63.1452 211.947 62.9637 210.555 61.9355 209.404C60.9677 208.436 59.5766 208.012 58.7903 208.799ZM52.2581 203.895C51.8347 204.682 52.4395 205.651 53.6492 206.256C54.6169 206.862 55.8266 206.68 56.25 205.833C56.6734 205.046 56.0686 204.077 54.8589 203.472C53.6492 203.108 52.6815 203.29 52.2581 203.895ZM71.8548 225.447C70.8871 226.234 71.25 228.05 72.6411 229.201C74.0323 230.593 75.7863 230.775 76.5726 229.806C77.3589 229.019 76.996 227.203 75.7863 226.053C74.4557 224.66 72.6411 224.479 71.8548 225.447ZM64.9597 216.548C63.9919 217.153 63.9919 218.727 64.9597 220.12C65.9274 221.512 67.5605 222.118 68.3468 221.512C69.3145 220.725 69.3145 219.151 68.3468 217.759C67.5 216.366 65.9274 215.761 64.9597 216.548Z" fill="white"/>
</svg>
