<svg width="1682" height="1677" viewBox="0 0 1682 1677" fill="none" xmlns="http://www.w3.org/2000/svg">
<path d="M1658.83 481.942C1651.97 466.615 1638.86 454.883 1622.87 449.815L1600.2 442.598C1396.97 377.903 1174.05 401.226 988.612 506.59L911.557 550.369L776.89 493.227C776.661 493.129 776.428 493.035 776.198 492.946C668.159 450.8 550.173 453.249 443.974 499.842L250.017 584.943C240.792 588.99 234.813 598.092 234.765 608.164C234.716 618.239 240.602 627.398 249.788 631.532L539.219 761.921L521.394 772.05C512.411 777.156 507.395 787.177 508.698 797.427C510.007 807.739 511.59 818.004 513.435 828.214L410.958 884.041C402.197 888.814 397.026 898.262 397.721 908.214C400.409 946.511 409.383 983.478 424.402 1018.09C439.784 1053.55 461.277 1086.03 488.279 1114.62C490.918 1117.42 494.096 1119.52 497.545 1120.87C502.894 1122.95 508.903 1123.21 514.583 1121.4C534.447 1115.04 557.506 1107.31 579.807 1099.84C595.703 1094.51 611.965 1089.06 627.114 1084.09C632.352 1090.88 637.723 1097.58 643.264 1104.14C646.067 1107.47 649.597 1109.94 653.484 1111.46C658.655 1113.48 664.451 1113.8 669.992 1112.15L691.082 1105.91L590.621 1408.45C587.448 1418.01 590.2 1428.54 597.644 1435.33C600.001 1437.47 602.68 1439.12 605.542 1440.23C611.729 1442.65 618.748 1442.6 625.057 1439.83L819.016 1354.73C925.216 1308.13 1006.91 1222.97 1049.06 1114.93L1099.81 984.825L1171.52 963.584C1386.41 899.924 1562.18 746.084 1653.75 541.507L1658.82 530.168C1665.69 514.846 1665.69 497.269 1658.83 481.942ZM323.009 608.597L464.459 546.536C558.07 505.465 662.067 503.261 757.325 540.314L855.747 582.077L594.115 730.732L323.009 608.597ZM563.602 1051.49C547.168 1057 530.319 1062.65 514.739 1067.75C496.744 1046.49 482.119 1023.02 471.178 997.799C460.58 973.371 453.534 947.516 450.162 920.748L525.191 879.874C532.581 906.725 541.866 933.05 553 958.662C553.008 958.682 553.018 958.699 553.027 958.719C553.029 958.725 553.031 958.734 553.034 958.741C553.039 958.751 553.044 958.758 553.048 958.768C565.396 987.157 579.939 1014.46 596.512 1040.49C585.669 1044.09 574.546 1047.82 563.602 1051.49ZM1001.56 1096.4C964.364 1191.75 892.264 1266.91 798.535 1308.04L657.085 1370.1L750.67 1088.26L1037.93 1003.16L1001.56 1096.4L1001.56 1096.4ZM1607.22 520.68C1521.74 711.657 1357.65 855.27 1157.04 914.698L671.763 1058.45C647.912 1028.35 627.433 995.805 610.501 961.377L785.081 884.781C797.972 879.125 803.84 864.083 798.185 851.189C792.527 838.295 777.488 832.428 764.593 838.085L590.178 914.61C577.072 880.073 567.481 844.315 561.68 807.808L1013.8 550.922C1186.91 452.564 1395.01 430.789 1584.73 491.187L1607.39 498.404C1610.36 499.355 1611.74 501.55 1612.29 502.779C1612.84 504.004 1613.57 506.488 1612.29 509.345L1607.22 520.68Z" fill="white"/>
</svg>
