<svg width="255" height="245" viewBox="0 0 255 245" fill="none" xmlns="http://www.w3.org/2000/svg">
<path d="M246.417 80.9094C242.845 77.768 238.447 75.7428 233.7 75.0529L175.574 66.6068L149.579 13.9359C147.456 9.63405 144.171 6.07712 140.08 3.65092C136.284 1.40047 131.934 0.210449 127.5 0.210449C123.065 0.210449 118.715 1.40005 114.92 3.65092C110.828 6.07712 107.544 9.63362 105.42 13.9359L79.4259 66.6072L21.3001 75.0529C16.5523 75.7428 12.1548 77.768 8.58303 80.9094C5.26961 83.8235 2.79429 87.593 1.42386 91.8106C0.053861 96.0278 -0.159156 100.532 0.808103 104.838C1.85117 109.478 4.2185 113.702 7.6543 117.05L49.7144 158.049L39.7852 215.94C38.5549 223.114 40.5297 230.407 45.2034 235.951C49.9118 241.536 56.7817 244.739 64.0514 244.739C68.0106 244.739 71.9733 243.756 75.5107 241.896L127.5 214.564L179.489 241.896C183.027 243.756 186.989 244.739 190.948 244.739C198.218 244.739 205.088 241.536 209.797 235.951C214.47 230.407 216.445 223.114 215.215 215.94L205.286 158.049L247.346 117.05C250.782 113.701 253.149 109.478 254.192 104.838C255.16 100.532 254.947 96.0278 253.577 91.8106C252.206 87.5935 249.73 83.8239 246.417 80.9094ZM234.682 104.059L188.231 149.338C186.704 150.827 186.007 152.971 186.368 155.073L197.333 219.008C198.052 223.196 194.724 226.597 190.948 226.597C189.952 226.597 188.925 226.36 187.932 225.838L130.516 195.653C129.572 195.156 128.536 194.908 127.5 194.908C126.465 194.908 125.429 195.156 124.485 195.653L67.0688 225.838C66.0765 226.36 65.0483 226.597 64.0522 226.597C60.2764 226.597 56.949 223.196 57.6672 219.008L68.6328 155.073C68.9936 152.971 68.2965 150.827 66.7694 149.338L20.3176 104.059C16.4719 100.311 18.594 93.7794 23.9084 93.007L88.1025 83.6791C90.2127 83.3725 92.0371 82.0469 92.9811 80.1344L121.69 21.9649C122.878 19.5569 125.189 18.353 127.5 18.353C129.811 18.353 132.122 19.5574 133.31 21.9649L162.019 80.1344C162.963 82.0465 164.787 83.3725 166.897 83.6791L231.091 93.007C236.406 93.7794 238.527 100.311 234.682 104.059Z" fill="white"/>
<path d="M190.948 244.951C186.954 244.951 182.958 243.96 179.391 242.083L127.5 214.803L75.6094 242.084C72.0414 243.96 68.0449 244.951 64.0514 244.951C56.719 244.951 49.7902 241.721 45.0412 236.088C40.3273 230.497 38.3356 223.14 39.5764 215.905L49.4866 158.124L7.50606 117.203C4.04104 113.825 1.6538 109.566 0.601421 104.885C-0.374309 100.542 -0.159597 95.999 1.22226 91.7458C2.60455 87.4927 5.10147 83.6906 8.44326 80.7515C12.0459 77.5829 16.4816 75.5404 21.27 74.8446L79.2857 66.4145L105.231 13.8432C107.373 9.50406 110.686 5.91706 114.813 3.46969C118.641 1.19976 123.028 0 127.5 0C131.973 0 136.36 1.19976 140.188 3.46969C144.315 5.91664 147.628 9.50406 149.77 13.8432L175.715 66.4145L233.731 74.8446C238.519 75.54 242.954 77.5825 246.557 80.7515C249.9 83.6906 252.396 87.4927 253.778 91.7463C255.161 95.9999 255.375 100.543 254.399 104.885C253.347 109.566 250.96 113.825 247.494 117.203L205.514 158.124L215.424 215.905C216.665 223.14 214.673 230.497 209.959 236.088C205.209 241.72 198.28 244.951 190.948 244.951ZM127.5 214.325L127.598 214.377L179.587 241.709C183.094 243.553 187.023 244.527 190.947 244.527C198.155 244.527 204.966 241.352 209.634 235.815C214.267 230.319 216.225 223.088 215.005 215.976L205.058 157.975L247.198 116.899C250.604 113.579 252.951 109.392 253.985 104.792C254.944 100.524 254.733 96.0574 253.375 91.8763C252.016 87.6951 249.562 83.9578 246.277 81.0687C242.736 77.9543 238.376 75.9465 233.669 75.263L175.433 66.8012L175.384 66.7012L149.39 14.0295C147.284 9.76409 144.028 6.2385 139.972 3.83305C136.209 1.60166 131.896 0.422224 127.5 0.422224C123.104 0.422224 118.791 1.60166 115.028 3.83305C110.972 6.23807 107.716 9.76409 105.611 14.0295L79.5665 66.8003L79.4564 66.8164L21.3306 75.2626C16.6239 75.9465 12.264 77.9539 8.72276 81.0683C5.43814 83.9574 2.98357 87.6943 1.62501 91.8759C0.266438 96.057 0.0555376 100.523 1.01475 104.791C2.04892 109.392 4.39593 113.579 7.80209 116.899L49.9418 157.975L49.9232 158.085L39.994 215.976C38.7743 223.088 40.7321 230.319 45.3656 235.815C50.0337 241.352 56.8444 244.527 64.0518 244.527C67.9767 244.527 71.9051 243.553 75.4124 241.709L127.5 214.325ZM190.948 226.808C189.869 226.808 188.822 226.545 187.834 226.025L130.417 195.84C128.626 194.897 126.376 194.897 124.583 195.84L67.167 226.025C66.179 226.545 65.1309 226.808 64.0522 226.808C62.08 226.808 60.2069 225.928 58.9127 224.394C57.635 222.878 57.1188 220.953 57.4584 218.971L68.424 155.037C68.7729 153.003 68.0987 150.93 66.6211 149.489L20.1698 104.211C18.3327 102.42 17.6839 99.7918 18.4767 97.3516C19.2695 94.9115 21.3391 93.1667 23.8783 92.7978L88.0724 83.4699C90.114 83.1731 91.8783 81.8911 92.7914 80.0413L121.5 21.8718C122.635 19.571 124.934 18.1417 127.5 18.1417C130.066 18.1417 132.365 19.571 133.5 21.8718L162.208 80.0413C163.121 81.8916 164.886 83.1735 166.928 83.4699L231.121 92.7978C233.661 93.1667 235.731 94.9119 236.523 97.3521C237.316 99.7918 236.667 102.42 234.83 104.211L188.379 149.49C186.901 150.93 186.227 153.003 186.576 155.037L197.542 218.972C197.881 220.953 197.365 222.878 196.087 224.394C194.793 225.928 192.92 226.808 190.948 226.808ZM127.5 194.696C128.58 194.696 129.657 194.962 130.614 195.465L188.03 225.65C188.957 226.137 189.939 226.384 190.948 226.384C192.795 226.384 194.551 225.559 195.763 224.12C196.959 222.701 197.443 220.899 197.124 219.043L186.159 155.108C185.786 152.937 186.505 150.723 188.083 149.186L234.534 103.907C236.255 102.229 236.863 99.7677 236.12 97.4825C235.377 95.1969 233.439 93.5622 231.06 93.2162L166.866 83.8883C164.687 83.5716 162.803 82.2032 161.828 80.2281L133.12 22.0586C132.056 19.9034 129.903 18.5647 127.5 18.5647C125.096 18.5647 122.943 19.9034 121.879 22.0586L93.1708 80.2281C92.1959 82.2032 90.3126 83.572 88.1329 83.8883L23.9389 93.2166C21.5606 93.5622 19.6218 95.1969 18.8794 97.4825C18.137 99.7681 18.7447 102.23 20.4654 103.907L66.9163 149.186C68.4938 150.724 69.2133 152.938 68.8407 155.109L57.8751 219.043C57.5571 220.899 58.0403 222.702 59.2358 224.12C60.4491 225.559 62.2045 226.385 64.0514 226.385C65.061 226.385 66.0426 226.138 66.9692 225.651L124.386 195.465C125.343 194.962 126.419 194.696 127.5 194.696Z" fill="white"/>
</svg>
