<svg width="300" height="300" viewBox="0 0 300 300" fill="none" xmlns="http://www.w3.org/2000/svg">
<path d="M278.571 0H21.3616C9.57589 0 0 9.70982 0 21.6295V278.371C0 290.29 9.57589 300 21.3616 300H278.571C290.357 300 300 290.29 300 278.371V21.6295C300 9.70982 290.357 0 278.571 0ZM90.6696 257.143H46.2054V113.973H90.7366V257.143H90.6696ZM68.4375 94.4196C54.1741 94.4196 42.6563 82.8348 42.6563 68.6384C42.6563 54.442 54.1741 42.8571 68.4375 42.8571C82.6339 42.8571 94.2187 54.442 94.2187 68.6384C94.2187 82.9018 82.7009 94.4196 68.4375 94.4196V94.4196ZM257.344 257.143H212.879V187.5C212.879 170.893 212.545 149.531 189.777 149.531C166.607 149.531 163.058 167.612 163.058 186.295V257.143H118.594V113.973H161.25V133.527H161.853C167.812 122.277 182.344 110.424 203.973 110.424C248.973 110.424 257.344 140.089 257.344 178.661V257.143V257.143Z" fill="white"/>
</svg>
