<svg width="1684" height="1685" viewBox="0 0 1684 1685" fill="none" xmlns="http://www.w3.org/2000/svg">
<g clip-path="url(#clip0)">
<path d="M25.1776 1217.49C38.3217 1222.62 53.1337 1216.12 58.2612 1202.98C63.3886 1189.83 56.8899 1175.02 43.7458 1169.89C30.6017 1164.77 15.7896 1171.26 10.6622 1184.41C5.5347 1197.55 12.0335 1212.36 25.1776 1217.49Z" fill="white"/>
<path d="M868.525 850.978C881.643 856.095 896.425 849.609 901.542 836.491C906.66 823.373 900.174 808.59 887.056 803.473C873.938 798.356 859.155 804.842 854.038 817.96C848.921 831.078 855.407 845.86 868.525 850.978Z" fill="white"/>
<path d="M1306.28 647.455C1294.64 620.91 1273.35 600.493 1246.35 589.959C1219.35 579.426 1189.86 580.04 1163.32 591.684C1108.52 615.726 1083.51 679.862 1107.55 734.653C1119.57 762.052 1141.61 781.999 1167.5 792.099C1193.38 802.196 1223.12 802.441 1250.51 790.424C1305.31 766.382 1330.32 702.247 1306.28 647.455ZM1230.03 743.731C1200.98 756.474 1166.98 743.209 1154.24 714.165C1141.49 685.119 1154.76 651.118 1183.8 638.373C1197.88 632.199 1213.51 631.875 1227.82 637.459C1242.14 643.043 1253.42 653.866 1259.59 667.938C1272.34 696.987 1259.08 730.988 1230.03 743.731Z" fill="white"/>
<path d="M389.481 1089.6C380.019 1079.17 363.897 1078.39 353.469 1087.85L303.017 1133.63C281.079 1153.53 249.894 1160.4 221.627 1151.54L187.846 1140.96C182.139 1139.16 179.562 1134.96 178.53 1132.61C177.499 1130.26 176.151 1125.51 178.697 1120.1L193.784 1088.08C206.409 1061.29 232.579 1042.99 262.076 1040.32L329.923 1034.19C343.948 1032.92 354.289 1020.53 353.021 1006.51C351.756 992.485 339.362 982.142 325.337 983.409L257.49 989.537C210.048 993.822 167.962 1023.25 147.657 1066.35L132.57 1098.37C124.426 1115.65 124.158 1135.6 131.834 1153.1C138.901 1169.2 152.058 1181.77 168.335 1188.12C169.733 1188.66 171.159 1189.16 172.602 1189.61L206.384 1200.2C251.843 1214.44 301.996 1203.4 337.278 1171.39L387.729 1125.61C398.158 1116.15 398.941 1100.03 389.481 1089.6Z" fill="white"/>
<path d="M1659.83 485.942C1652.97 470.615 1639.86 458.883 1623.87 453.815L1601.2 446.598C1397.97 381.903 1175.05 405.226 989.612 510.59L912.557 554.369L777.89 497.227C777.661 497.129 777.428 497.035 777.198 496.946C669.159 454.8 551.173 457.249 444.974 503.842L251.017 588.943C241.792 592.99 235.813 602.092 235.765 612.164C235.716 622.239 241.602 631.398 250.788 635.532L540.219 765.921L522.394 776.05C513.411 781.156 508.395 791.177 509.698 801.427C511.007 811.739 512.59 822.004 514.435 832.214L411.958 888.041C403.197 892.814 398.026 902.262 398.721 912.214C401.409 950.511 410.383 987.478 425.402 1022.09C440.784 1057.55 462.277 1090.03 489.279 1118.62C491.918 1121.42 495.096 1123.52 498.545 1124.87C503.894 1126.95 509.903 1127.21 515.583 1125.4C535.447 1119.04 558.506 1111.31 580.807 1103.84C596.703 1098.51 612.965 1093.06 628.114 1088.09C633.352 1094.88 638.723 1101.58 644.264 1108.14C647.067 1111.47 650.597 1113.94 654.484 1115.46C659.655 1117.48 665.451 1117.8 670.992 1116.15L692.082 1109.91L591.621 1412.45C588.448 1422.01 591.2 1432.54 598.644 1439.33C601.001 1441.47 603.68 1443.12 606.542 1444.23C612.729 1446.65 619.748 1446.6 626.057 1443.83L820.016 1358.73C926.216 1312.13 1007.91 1226.97 1050.06 1118.93L1100.81 988.825L1172.52 967.584C1387.41 903.924 1563.18 750.084 1654.75 545.507L1659.82 534.168C1666.69 518.846 1666.69 501.269 1659.83 485.942ZM324.009 612.597L465.459 550.536C559.07 509.465 663.067 507.261 758.325 544.314L856.747 586.077L595.115 734.732L324.009 612.597ZM564.602 1055.49C548.168 1061 531.319 1066.65 515.739 1071.75C497.744 1050.49 483.119 1027.02 472.178 1001.8C461.58 977.371 454.534 951.516 451.162 924.748L526.191 883.874C533.581 910.725 542.866 937.05 554 962.662C554.008 962.682 554.018 962.699 554.027 962.719C554.029 962.725 554.031 962.734 554.034 962.741C554.039 962.751 554.044 962.758 554.048 962.768C566.396 991.157 580.939 1018.46 597.512 1044.49C586.669 1048.09 575.546 1051.82 564.602 1055.49ZM1002.56 1100.4C965.364 1195.75 893.264 1270.91 799.535 1312.04L658.085 1374.1L751.67 1092.26L1038.93 1007.16L1002.56 1100.4L1002.56 1100.4ZM1608.22 524.68C1522.74 715.657 1358.65 859.27 1158.04 918.698L672.763 1062.45C648.912 1032.35 628.433 999.805 611.501 965.377L786.081 888.781C798.972 883.125 804.84 868.083 799.185 855.189C793.527 842.295 778.488 836.428 765.593 842.085L591.178 918.61C578.072 884.073 568.481 848.315 562.68 811.808L1014.8 554.922C1187.91 456.564 1396.01 434.789 1585.73 495.187L1608.39 502.404C1611.36 503.355 1612.74 505.55 1613.29 506.779C1613.84 508.004 1614.57 510.488 1613.29 513.345L1608.22 524.68Z" fill="white"/>
</g>
<defs>
<clipPath id="clip0">
<rect width="1300.16" height="1300.16" fill="white" transform="translate(472.51 0.475098) rotate(21.3106)"/>
</clipPath>
</defs>
</svg>
