<svg width="118" height="119" viewBox="0 0 118 119" fill="none" xmlns="http://www.w3.org/2000/svg">
<path d="M68.158 44.354L112.512 9.63084e-05L117.53 5.01817L73.176 49.3721L68.158 44.354Z" fill="white"/>
<path d="M62.8353 28.3843L84.1252 7.09444L89.1432 12.1125L67.8534 33.4024L62.8353 28.3843Z" fill="white"/>
<path d="M84.1237 49.6777L105.414 28.3879L110.432 33.406L89.1418 54.6958L84.1237 49.6777Z" fill="white"/>
<path d="M59.3794 61.1192L45.3619 32.7163L31.3444 61.1192L0 65.6738L22.6809 87.7819L17.3267 118.999L45.3619 104.26L73.3968 119L68.0426 87.7822L90.7233 65.6738L59.3794 61.1192ZM63.9699 106.025L45.3616 96.2417L26.7531 106.025L30.3069 85.3039L15.2527 70.6296L36.0577 67.6065L45.3619 48.754L54.666 67.6065L75.471 70.6296L60.4161 85.3041L63.9699 106.025Z" fill="white"/>
</svg>
