<svg width="430" height="429" viewBox="0 0 430 429" fill="none" xmlns="http://www.w3.org/2000/svg">
<path d="M58.6402 72.645V87H3.2502V72.645H23.8402V22.04C22.7769 23.49 20.8435 25.085 18.0402 26.825C15.2369 28.565 12.1919 30.015 8.9052 31.175C5.7152 32.335 2.86353 32.915 0.350196 32.915V17.98C2.28353 17.98 4.50686 17.4 7.0202 16.24C9.53353 15.08 11.9985 13.7267 14.4152 12.18C16.9285 10.5367 19.0552 8.98999 20.7952 7.53999C22.5352 5.99333 23.5502 4.88166 23.8402 4.20499H40.2252V72.645H58.6402ZM179.537 44.515C179.537 53.0217 177.894 60.61 174.607 67.28C171.417 73.8533 167.019 79.025 161.412 82.795C155.806 86.565 149.474 88.45 142.417 88.45C135.264 88.45 128.884 86.565 123.277 82.795C117.767 79.025 113.369 73.8533 110.082 67.28C106.892 60.61 105.297 53.0217 105.297 44.515C105.297 36.0083 106.892 28.4683 110.082 21.895C113.369 15.225 117.767 10.005 123.277 6.23499C128.884 2.36833 135.264 0.435 142.417 0.435C149.474 0.435 155.806 2.36833 161.412 6.23499C167.019 10.005 171.417 15.225 174.607 21.895C177.894 28.4683 179.537 36.0083 179.537 44.515ZM163.297 44.515C163.297 38.715 162.379 33.64 160.542 29.29C158.802 24.8433 156.337 21.4117 153.147 18.995C150.054 16.4817 146.477 15.225 142.417 15.225C138.261 15.225 134.587 16.4817 131.397 18.995C128.207 21.4117 125.694 24.8433 123.857 29.29C122.117 33.64 121.247 38.715 121.247 44.515C121.247 53.215 123.181 60.2717 127.047 65.685C131.011 71.0017 136.134 73.66 142.417 73.66C146.477 73.66 150.054 72.4517 153.147 70.035C156.337 67.6183 158.802 64.235 160.542 59.885C162.379 55.4383 163.297 50.315 163.297 44.515ZM287.61 72.645V87H232.22V72.645H252.81V22.04C251.747 23.49 249.813 25.085 247.01 26.825C244.207 28.565 241.162 30.015 237.875 31.175C234.685 32.335 231.833 32.915 229.32 32.915V17.98C231.253 17.98 233.477 17.4 235.99 16.24C238.503 15.08 240.968 13.7267 243.385 12.18C245.898 10.5367 248.025 8.98999 249.765 7.53999C251.505 5.99333 252.52 4.88166 252.81 4.20499H269.195V72.645H287.61ZM408.507 44.515C408.507 53.0217 406.864 60.61 403.577 67.28C400.387 73.8533 395.989 79.025 390.382 82.795C384.775 86.565 378.444 88.45 371.387 88.45C364.234 88.45 357.854 86.565 352.247 82.795C346.737 79.025 342.339 73.8533 339.052 67.28C335.862 60.61 334.267 53.0217 334.267 44.515C334.267 36.0083 335.862 28.4683 339.052 21.895C342.339 15.225 346.737 10.005 352.247 6.23499C357.854 2.36833 364.234 0.435 371.387 0.435C378.444 0.435 384.775 2.36833 390.382 6.23499C395.989 10.005 400.387 15.225 403.577 21.895C406.864 28.4683 408.507 36.0083 408.507 44.515ZM392.267 44.515C392.267 38.715 391.349 33.64 389.512 29.29C387.772 24.8433 385.307 21.4117 382.117 18.995C379.024 16.4817 375.447 15.225 371.387 15.225C367.23 15.225 363.557 16.4817 360.367 18.995C357.177 21.4117 354.664 24.8433 352.827 29.29C351.087 33.64 350.217 38.715 350.217 44.515C350.217 53.215 352.15 60.2717 356.017 65.685C359.98 71.0017 365.104 73.66 371.387 73.66C375.447 73.66 379.024 72.4517 382.117 70.035C385.307 67.6183 387.772 64.235 389.512 59.885C391.349 55.4383 392.267 50.315 392.267 44.515ZM75.4602 214.515C75.4602 223.022 73.8169 230.61 70.5302 237.28C67.3402 243.853 62.9419 249.025 57.3352 252.795C51.7285 256.565 45.3969 258.45 38.3402 258.45C31.1869 258.45 24.8069 256.565 19.2002 252.795C13.6902 249.025 9.29186 243.853 6.0052 237.28C2.8152 230.61 1.2202 223.022 1.2202 214.515C1.2202 206.008 2.8152 198.468 6.0052 191.895C9.29186 185.225 13.6902 180.005 19.2002 176.235C24.8069 172.368 31.1869 170.435 38.3402 170.435C45.3969 170.435 51.7285 172.368 57.3352 176.235C62.9419 180.005 67.3402 185.225 70.5302 191.895C73.8169 198.468 75.4602 206.008 75.4602 214.515ZM59.2202 214.515C59.2202 208.715 58.3019 203.64 56.4652 199.29C54.7252 194.843 52.2602 191.412 49.0702 188.995C45.9769 186.482 42.4002 185.225 38.3402 185.225C34.1835 185.225 30.5102 186.482 27.3202 188.995C24.1302 191.412 21.6169 194.843 19.7802 199.29C18.0402 203.64 17.1702 208.715 17.1702 214.515C17.1702 223.215 19.1035 230.272 22.9702 235.685C26.9335 241.002 32.0569 243.66 38.3402 243.66C42.4002 243.66 45.9769 242.452 49.0702 240.035C52.2602 237.618 54.7252 234.235 56.4652 229.885C58.3019 225.438 59.2202 220.315 59.2202 214.515ZM183.533 242.645V257H128.143V242.645H148.733V192.04C147.669 193.49 145.736 195.085 142.933 196.825C140.129 198.565 137.084 200.015 133.798 201.175C130.608 202.335 127.756 202.915 125.243 202.915V187.98C127.176 187.98 129.399 187.4 131.913 186.24C134.426 185.08 136.891 183.727 139.308 182.18C141.821 180.537 143.948 178.99 145.688 177.54C147.428 175.993 148.443 174.882 148.733 174.205H165.118V242.645H183.533ZM287.61 242.645V257H232.22V242.645H252.81V192.04C251.747 193.49 249.813 195.085 247.01 196.825C244.207 198.565 241.162 200.015 237.875 201.175C234.685 202.335 231.833 202.915 229.32 202.915V187.98C231.253 187.98 233.477 187.4 235.99 186.24C238.503 185.08 240.968 183.727 243.385 182.18C245.898 180.537 248.025 178.99 249.765 177.54C251.505 175.993 252.52 174.882 252.81 174.205H269.195V242.645H287.61ZM408.507 214.515C408.507 223.022 406.864 230.61 403.577 237.28C400.387 243.853 395.989 249.025 390.382 252.795C384.775 256.565 378.444 258.45 371.387 258.45C364.234 258.45 357.854 256.565 352.247 252.795C346.737 249.025 342.339 243.853 339.052 237.28C335.862 230.61 334.267 223.022 334.267 214.515C334.267 206.008 335.862 198.468 339.052 191.895C342.339 185.225 346.737 180.005 352.247 176.235C357.854 172.368 364.234 170.435 371.387 170.435C378.444 170.435 384.775 172.368 390.382 176.235C395.989 180.005 400.387 185.225 403.577 191.895C406.864 198.468 408.507 206.008 408.507 214.515ZM392.267 214.515C392.267 208.715 391.349 203.64 389.512 199.29C387.772 194.843 385.307 191.412 382.117 188.995C379.024 186.482 375.447 185.225 371.387 185.225C367.23 185.225 363.557 186.482 360.367 188.995C357.177 191.412 354.664 194.843 352.827 199.29C351.087 203.64 350.217 208.715 350.217 214.515C350.217 223.215 352.15 230.272 356.017 235.685C359.98 241.002 365.104 243.66 371.387 243.66C375.447 243.66 379.024 242.452 382.117 240.035C385.307 237.618 387.772 234.235 389.512 229.885C391.349 225.438 392.267 220.315 392.267 214.515ZM75.4602 384.515C75.4602 393.022 73.8169 400.61 70.5302 407.28C67.3402 413.853 62.9419 419.025 57.3352 422.795C51.7285 426.565 45.3969 428.45 38.3402 428.45C31.1869 428.45 24.8069 426.565 19.2002 422.795C13.6902 419.025 9.29186 413.853 6.0052 407.28C2.8152 400.61 1.2202 393.022 1.2202 384.515C1.2202 376.008 2.8152 368.468 6.0052 361.895C9.29186 355.225 13.6902 350.005 19.2002 346.235C24.8069 342.368 31.1869 340.435 38.3402 340.435C45.3969 340.435 51.7285 342.368 57.3352 346.235C62.9419 350.005 67.3402 355.225 70.5302 361.895C73.8169 368.468 75.4602 376.008 75.4602 384.515ZM59.2202 384.515C59.2202 378.715 58.3019 373.64 56.4652 369.29C54.7252 364.843 52.2602 361.412 49.0702 358.995C45.9769 356.482 42.4002 355.225 38.3402 355.225C34.1835 355.225 30.5102 356.482 27.3202 358.995C24.1302 361.412 21.6169 364.843 19.7802 369.29C18.0402 373.64 17.1702 378.715 17.1702 384.515C17.1702 393.215 19.1035 400.272 22.9702 405.685C26.9335 411.002 32.0569 413.66 38.3402 413.66C42.4002 413.66 45.9769 412.452 49.0702 410.035C52.2602 407.618 54.7252 404.235 56.4652 399.885C58.3019 395.438 59.2202 390.315 59.2202 384.515ZM183.533 412.645V427H128.143V412.645H148.733V362.04C147.669 363.49 145.736 365.085 142.933 366.825C140.129 368.565 137.084 370.015 133.798 371.175C130.608 372.335 127.756 372.915 125.243 372.915V357.98C127.176 357.98 129.399 357.4 131.913 356.24C134.426 355.08 136.891 353.727 139.308 352.18C141.821 350.537 143.948 348.99 145.688 347.54C147.428 345.993 148.443 344.882 148.733 344.205H165.118V412.645H183.533ZM304.43 384.515C304.43 393.022 302.787 400.61 299.5 407.28C296.31 413.853 291.912 419.025 286.305 422.795C280.698 426.565 274.367 428.45 267.31 428.45C260.157 428.45 253.777 426.565 248.17 422.795C242.66 419.025 238.262 413.853 234.975 407.28C231.785 400.61 230.19 393.022 230.19 384.515C230.19 376.008 231.785 368.468 234.975 361.895C238.262 355.225 242.66 350.005 248.17 346.235C253.777 342.368 260.157 340.435 267.31 340.435C274.367 340.435 280.698 342.368 286.305 346.235C291.912 350.005 296.31 355.225 299.5 361.895C302.787 368.468 304.43 376.008 304.43 384.515ZM288.19 384.515C288.19 378.715 287.272 373.64 285.435 369.29C283.695 364.843 281.23 361.412 278.04 358.995C274.947 356.482 271.37 355.225 267.31 355.225C263.153 355.225 259.48 356.482 256.29 358.995C253.1 361.412 250.587 364.843 248.75 369.29C247.01 373.64 246.14 378.715 246.14 384.515C246.14 393.215 248.073 400.272 251.94 405.685C255.903 411.002 261.027 413.66 267.31 413.66C271.37 413.66 274.947 412.452 278.04 410.035C281.23 407.618 283.695 404.235 285.435 399.885C287.272 395.438 288.19 390.315 288.19 384.515ZM429.323 384.515C429.323 393.022 427.679 400.61 424.393 407.28C421.203 413.853 416.804 419.025 411.198 422.795C405.591 426.565 399.259 428.45 392.203 428.45C385.049 428.45 378.669 426.565 373.063 422.795C367.553 419.025 363.154 413.853 359.868 407.28C356.678 400.61 355.083 393.022 355.083 384.515C355.083 376.008 356.678 368.468 359.868 361.895C363.154 355.225 367.553 350.005 373.063 346.235C378.669 342.368 385.049 340.435 392.203 340.435C399.259 340.435 405.591 342.368 411.198 346.235C416.804 350.005 421.203 355.225 424.393 361.895C427.679 368.468 429.323 376.008 429.323 384.515ZM413.083 384.515C413.083 378.715 412.164 373.64 410.328 369.29C408.588 364.843 406.123 361.412 402.933 358.995C399.839 356.482 396.263 355.225 392.203 355.225C388.046 355.225 384.373 356.482 381.183 358.995C377.993 361.412 375.479 364.843 373.643 369.29C371.903 373.64 371.033 378.715 371.033 384.515C371.033 393.215 372.966 400.272 376.833 405.685C380.796 411.002 385.919 413.66 392.203 413.66C396.263 413.66 399.839 412.452 402.933 410.035C406.123 407.618 408.588 404.235 410.328 399.885C412.164 395.438 413.083 390.315 413.083 384.515Z" fill="white"/>
</svg>
