<svg width="255" height="255" viewBox="0 0 255 255" fill="none" xmlns="http://www.w3.org/2000/svg">
<path d="M167.344 31.875H199.219V63.75H167.344V31.875ZM199.219 181.321C199.219 192.079 196.693 227.532 165.415 238.29L135.469 223.125C157.829 213.371 167.344 197.625 167.344 181.321C167.344 158.785 167.344 87.6562 167.344 87.6562L199.219 87.6722C199.219 87.6722 199.219 157.104 199.219 181.321ZM111.562 31.875V82.0941C107.825 80.572 99.7688 80.2772 95.8003 80.2772C65.9255 80.2772 39.8438 95.7127 39.8438 135.469C39.8438 183.034 75.735 191.226 100.805 191.226C110.702 191.226 132.68 190.254 143.438 187.138V31.875H111.562ZM100.478 164.682C86.3813 164.682 71.7188 158.283 71.7188 135.469C71.7188 112.654 86.3813 107.825 100.478 107.825C103.92 107.825 107.793 108.471 111.562 109.331V163.176C107.801 164.029 103.928 164.682 100.478 164.682Z" fill="white"/>
</svg>
