<svg width="155" height="155" viewBox="0 0 155 155" fill="none" xmlns="http://www.w3.org/2000/svg">
<g clip-path="url(#clip0)">
<path d="M87.3812 -0.012085C95.9061 19.7141 56.7929 31.8961 53.1722 48.3406C49.83 63.4289 76.3858 80.9754 76.3979 80.9754C72.3655 74.727 69.4472 69.5684 65.4026 59.8446C58.5608 43.4 107.047 28.5297 87.3812 -0.012085ZM113.307 27.3188C113.307 27.3188 79.062 29.4864 77.3183 51.4043C76.5433 61.1645 86.3155 66.3715 86.6062 73.4797C86.8241 79.268 80.7573 84.0996 80.7573 84.0996C80.7573 84.0996 91.7647 82.0289 95.2159 73.177C99.0304 63.3563 87.8171 56.6477 88.9433 48.7887C90.0331 41.2688 113.307 27.3188 113.307 27.3188ZM121.614 77.9481C118.03 77.7906 114.046 78.9774 110.437 81.5688C117.509 80.0551 123.491 84.3781 123.491 89.3672C123.491 100.605 107.253 111.225 107.253 111.225C107.253 111.225 132.392 108.355 132.392 89.9C132.392 82.2711 127.572 78.2266 121.614 77.9481ZM59.469 77.9723C59.469 77.9723 28.0937 77.5485 28.0937 86.4246C28.0937 95.7004 69.1808 96.3543 98.5218 90.6387C98.5218 90.6387 106.357 85.2742 108.439 83.2762C89.2097 87.1996 45.3253 87.7203 45.3253 84.3297C45.3253 81.1934 59.469 77.9723 59.469 77.9723ZM51.8886 95.2403C47.0812 95.2403 39.9003 98.9578 39.9003 102.542C39.9003 109.747 76.1437 115.305 102.978 104.77L93.6901 99.0789C75.5019 104.904 41.971 103.039 51.8886 95.2403ZM56.3569 111.358C49.7573 111.358 45.4827 115.427 45.4827 118.43C45.4827 127.681 84.8745 128.614 100.483 119.205L90.5659 112.896C78.9046 117.824 49.6241 118.49 56.3569 111.358ZM34.3784 119.738C23.6253 119.52 16.6382 124.351 16.6382 128.359C16.6261 149.672 126.761 148.643 126.761 126.858C126.761 123.249 122.498 121.53 120.96 120.706C129.958 141.534 30.903 139.924 30.903 127.633C30.903 124.836 38.1687 122.087 44.9257 123.407L39.1979 120.149C37.5147 119.895 35.9042 119.762 34.3784 119.738ZM138.374 134.075C121.626 149.938 79.1952 155.727 36.5218 145.93C79.1831 163.38 138.156 153.559 138.374 134.075Z" fill="white"/>
</g>
<defs>
<clipPath id="clip0">
<rect width="155" height="155" fill="white"/>
</clipPath>
</defs>
</svg>
