<svg width="301" height="301" viewBox="0 0 301 301" fill="none" xmlns="http://www.w3.org/2000/svg">
<path d="M211.897 12.6514C202.867 12.6514 195.037 14.4386 187.817 16.2493C200.469 21.6578 208.299 28.2893 212.509 31.2993C222.15 39.7179 227.559 48.16 237.2 62.0107C238.987 65.0207 241.997 69.23 243.808 75.8379C245.619 81.8579 245.619 86.6786 245.619 91.4993C245.619 98.1307 245.007 103.539 244.396 108.948C243.808 113.181 243.808 114.991 243.22 116.191C243.22 116.802 243.22 117.39 242.609 118.589C242.609 121.599 242.609 122.822 243.22 125.221C243.22 127.619 243.808 130.041 243.808 134.251C244.419 142.081 244.419 147.49 243.22 154.098V156.52C241.997 161.929 240.798 167.361 237.788 172.158C238.399 173.381 238.987 173.969 239.599 175.168C242.609 170.959 245.007 166.749 247.406 161.952C254.649 148.689 258.858 137.261 261.868 128.842C267.277 113.181 270.287 101.729 272.097 93.31C276.307 75.25 276.918 66.8314 275.107 57.19C275.107 54.18 273.908 48.7479 270.898 43.3393C264.267 31.2993 254.037 25.8907 246.818 22.2693C241.997 19.8707 229.346 13.2393 211.897 12.6514ZM81.4796 15.3086C74.5425 15.1675 66.0769 15.9436 56.5765 20.4586C53.5665 21.6814 44.5365 25.8907 37.3172 35.5086C32.4965 41.5286 28.8987 50.5586 27.0879 60.7879C25.2772 69.8179 24.6658 80.6821 28.2872 101.141C30.6858 115.579 33.1079 125.221 37.9286 145.068C38.5401 147.49 42.1379 158.331 49.9687 182.411L50.5565 183.61C51.7794 187.819 55.3772 196.849 63.2079 205.879C68.6165 211.899 73.4372 215.521 77.6701 215.521H78.8458C86.6765 215.521 92.1086 209.501 96.9058 204.68C96.9058 204.069 108.358 190.241 112.567 185.421C111.956 184.809 110.78 184.809 110.169 184.198C102.949 179.989 97.5172 173.381 93.3079 166.138C86.0886 152.899 86.6765 139.659 87.8758 133.028L88.4872 122.822C86.0886 106.549 86.7001 90.9114 89.7101 75.25C92.1086 62.0107 95.1186 48.7714 105.936 34.9207C109.557 30.1 113.767 25.8907 117.976 22.8807C108.358 18.6714 98.1286 16.2493 87.8758 15.6614C85.924 15.4968 83.7841 15.3557 81.4796 15.3086ZM157.106 20.4586C154.096 20.4586 151.086 20.4586 148.076 21.07C136.036 23.4686 124.607 30.1 115.577 41.5286C106.547 52.9807 104.149 63.7979 101.75 76.4493C100.527 81.27 100.527 85.4793 99.9158 90.3C103.537 87.29 108.358 83.6686 115.577 81.8579C119.787 80.6586 130.627 77.0607 139.657 82.4693C142.667 84.28 146.877 87.9014 151.086 98.1307C160.116 123.41 151.109 149.301 149.91 151.699C149.299 154.098 148.099 155.909 147.488 157.108C146.289 160.118 145.089 162.54 143.89 167.361C143.279 171.57 142.667 175.191 142.667 179.401C144.478 179.401 146.289 179.989 148.076 181.188C151.086 184.198 151.697 188.431 152.309 190.218C153.508 199.859 153.508 211.899 153.508 223.939C153.508 233.581 153.508 242.611 154.096 248.631C155.319 262.481 159.528 272.099 165.548 276.92C169.757 280.541 175.166 280.518 178.176 281.129H179.399C188.429 281.129 202.867 275.109 208.276 266.691C211.286 261.87 212.509 257.661 213.708 251.641C214.319 248.019 214.296 246.232 214.907 242.611C214.907 240.8 215.519 237.79 215.519 234.192C215.519 231.182 216.107 227.561 216.718 223.328C217.329 213.099 219.117 201.082 219.728 194.451C220.339 186.62 223.937 179.989 226.947 175.779C222.738 175.168 218.529 171.57 216.13 165.55C212.509 158.919 211.897 157.108 211.286 154.098C210.698 151.699 209.499 148.689 205.266 139.659C196.236 119.201 195.06 113.181 195.06 108.36C194.449 101.729 193.837 92.7221 201.08 86.7021C211.897 77.0607 225.748 77.6721 232.967 80.0707V78.8479C231.768 74.0507 229.369 70.4293 227.559 68.0307C218.529 54.18 213.708 46.9607 205.266 39.7414C201.668 36.7314 192.638 29.4886 179.399 24.6914C173.379 22.8807 166.136 20.4586 157.106 20.4586ZM223.655 91.0525C219.281 90.7468 213.708 91.4993 208.887 95.7321C206.489 98.1307 206.489 102.951 207.1 107.161C207.1 110.171 207.688 114.38 216.718 134.862C220.927 144.48 222.127 147.49 222.738 149.912C223.349 152.311 223.937 153.51 227.559 160.118C228.17 161.341 228.758 162.54 229.957 163.739C231.157 161.929 231.768 158.919 232.356 154.098L232.967 152.311C234.167 146.902 233.579 142.669 233.579 135.45C233.579 131.829 232.967 129.43 232.967 127.619C232.356 124.609 232.356 122.211 232.356 118.589C231.157 116.779 231.157 116.191 231.768 114.968C231.768 113.769 232.356 111.981 232.967 108.36C233.579 103.539 234.19 99.33 234.19 94.5093C232.967 93.8979 232.379 93.31 231.18 92.7221C231.18 92.7221 228.005 91.3582 223.655 91.0525ZM129.522 93.4275C125.689 92.9808 121.292 94.2271 118.587 95.1207C111.956 96.9314 107.77 101.141 104.76 103.539C102.949 105.35 101.139 107.161 99.3279 109.559C99.3279 113.769 99.9158 118.001 100.527 122.211V122.822L99.3279 134.862C98.1286 140.271 97.5172 150.5 103.537 160.729C106.547 166.749 110.78 171.57 116.189 174.58C119.81 176.979 124.607 178.789 130.016 180.012C130.016 175.779 130.627 170.959 131.239 166.749C132.438 160.729 133.637 157.719 135.448 154.098C136.059 152.311 136.647 151.111 137.87 149.301C138.458 147.49 146.877 124.609 139.046 103.539C137.259 98.7186 135.448 95.7086 133.026 94.5093C131.991 93.8979 130.768 93.5686 129.522 93.4275ZM217.847 96.8608C219.422 96.7668 220.927 96.9079 221.539 97.5193C223.349 98.7186 220.927 101.729 220.316 102.34C219.728 102.951 218.529 104.151 216.718 104.762C214.319 105.35 212.509 103.539 211.897 103.539C211.286 102.928 209.499 101.141 210.11 99.33C210.698 98.1307 211.309 98.1307 213.708 97.5193C214.602 97.2136 216.271 96.9314 217.847 96.8608ZM127.359 101.846C129.381 101.705 131.074 102.481 132.438 102.928C134.249 103.539 136.036 104.151 136.036 105.35C136.647 107.161 134.86 108.36 134.249 108.948C132.438 110.759 129.428 110.782 129.428 110.782C126.418 110.782 124.607 108.971 123.408 107.161C122.797 106.549 122.209 105.35 122.82 104.151C123.408 102.951 124.607 102.34 125.219 102.34C125.971 102.034 126.677 101.893 127.359 101.846ZM237.788 180.6C234.778 184.809 230.569 190.241 229.957 197.461C229.957 198.66 229.957 199.271 229.346 200.471C234.167 201.67 238.399 201.67 242.609 201.082C252.25 199.859 258.858 195.039 260.057 193.839C264.267 190.829 269.699 184.809 268.476 182.411C267.888 181.211 266.077 181.799 256.436 182.411C254.037 182.411 246.818 184.221 241.997 183.022H240.798C239.599 182.411 238.399 181.799 237.788 180.6ZM133.026 192.64C131.827 194.451 130.039 195.65 128.84 196.849C124.019 199.859 117.976 202.281 111.956 203.481C106.547 205.291 103.537 205.291 103.537 207.102C102.926 209.501 108.946 212.511 111.956 213.71C122.209 217.919 132.438 215.521 134.249 214.909C135.448 214.298 138.458 213.099 141.468 211.288C141.468 204.68 140.88 198.66 140.269 193.839V193.228H139.657C137.847 193.228 135.448 193.251 133.026 192.64Z" fill="white"/>
</svg>
