<svg width="300" height="300" viewBox="0 0 300 300" fill="none" xmlns="http://www.w3.org/2000/svg">
<path d="M235.227 65.3409H65.3409C29.5455 65.3409 0 103.409 0 150C0 196.591 29.5455 234.659 65.3409 234.659C88.0682 234.659 109.659 219.318 121.023 194.318H178.977C190.909 219.318 211.932 234.659 234.659 234.659C270.455 234.659 300 196.591 300 150C300 103.409 271.023 65.3409 235.227 65.3409ZM235.227 223.295C215.909 223.295 197.727 209.091 188.068 186.364C186.932 184.091 185.227 182.955 182.955 182.955H117.614C115.341 182.955 113.068 184.091 112.5 186.364C102.841 209.091 84.6591 223.295 65.3409 223.295C35.7955 223.295 11.3636 190.341 11.3636 150C11.3636 109.659 35.7955 76.7046 65.3409 76.7046H235.227C264.773 76.7046 289.205 109.659 289.205 150C289.205 190.341 264.773 223.295 235.227 223.295Z" fill="white"/>
<path d="M97.7273 131.25H69.8864V103.409C69.8864 100 67.6136 97.7273 64.2045 97.7273C60.7955 97.7273 58.5227 100 58.5227 103.409V131.25H30.6818C27.2727 131.25 25 133.523 25 136.932C25 140.341 27.2727 142.614 30.6818 142.614H58.5227V170.455C58.5227 173.864 60.7955 176.136 64.2045 176.136C67.6136 176.136 69.8864 173.864 69.8864 170.455V142.614H97.7273C101.136 142.614 103.409 140.341 103.409 136.932C103.409 133.523 101.136 131.25 97.7273 131.25Z" fill="white"/>
<path d="M225.568 86.9318C215.909 86.9318 208.522 94.3182 208.522 103.977C208.522 113.636 215.909 121.023 225.568 121.023C235.227 121.023 242.613 113.636 242.613 103.977C242.613 94.3182 235.227 86.9318 225.568 86.9318ZM225.568 109.659C222.159 109.659 219.886 107.386 219.886 103.977C219.886 100.568 222.159 98.2955 225.568 98.2955C228.977 98.2955 231.25 100.568 231.25 103.977C231.25 107.386 228.977 109.659 225.568 109.659Z" fill="white"/>
<path d="M225.568 151.705C215.909 151.705 208.522 159.091 208.522 168.75C208.522 178.409 215.909 185.796 225.568 185.796C235.227 185.796 242.613 178.409 242.613 168.75C242.613 159.091 234.659 151.705 225.568 151.705ZM225.568 174.432C222.159 174.432 219.886 172.159 219.886 168.75C219.886 165.341 222.159 163.068 225.568 163.068C228.977 163.068 231.25 165.341 231.25 168.75C231.25 172.159 228.409 174.432 225.568 174.432Z" fill="white"/>
<path d="M196.023 119.318C186.363 119.318 178.977 126.705 178.977 136.364C178.977 146.023 186.363 153.409 196.023 153.409C205.682 153.409 213.068 146.023 213.068 136.364C213.068 126.705 205.113 119.318 196.023 119.318ZM196.023 142.046C192.613 142.046 190.341 139.773 190.341 136.364C190.341 132.955 192.613 130.682 196.023 130.682C199.432 130.682 201.704 132.955 201.704 136.364C201.704 139.773 198.863 142.046 196.023 142.046Z" fill="white"/>
<path d="M255.114 119.318C245.455 119.318 238.068 126.705 238.068 136.364C238.068 146.023 245.455 153.409 255.114 153.409C264.773 153.409 272.159 146.023 272.159 136.364C272.159 126.705 264.773 119.318 255.114 119.318ZM255.114 142.046C251.705 142.046 249.432 139.773 249.432 136.364C249.432 132.955 251.705 130.682 255.114 130.682C258.523 130.682 260.796 132.955 260.796 136.364C260.796 139.773 258.523 142.046 255.114 142.046Z" fill="white"/>
<path d="M140.909 157.955H127.273C123.864 157.955 121.591 160.227 121.591 163.636C121.591 167.046 123.864 169.318 127.273 169.318H140.909C144.318 169.318 146.591 167.046 146.591 163.636C146.591 160.227 143.75 157.955 140.909 157.955Z" fill="white"/>
<path d="M173.296 157.955H159.659C156.25 157.955 153.978 160.227 153.978 163.636C153.978 167.046 156.25 169.318 159.659 169.318H173.296C176.705 169.318 178.978 167.046 178.978 163.636C178.978 160.227 176.137 157.955 173.296 157.955Z" fill="white"/>
</svg>
