<svg width="383" height="438" viewBox="0 0 383 438" fill="none" xmlns="http://www.w3.org/2000/svg">
<g clip-path="url(#clip0)">
<path d="M375.989 171.521C369.407 145.087 356.925 125.155 330.337 125.155H296.055V165.704C296.055 197.185 269.382 223.705 238.947 223.705H147.643C122.679 223.705 101.991 245.092 101.991 270.157V357.244C101.991 382.052 123.534 396.595 147.643 403.696C176.539 412.165 204.323 413.705 238.947 403.696C261.944 397.023 284.599 383.592 284.599 357.244V322.426H193.38V310.792H330.337C356.925 310.792 366.756 292.228 375.989 264.425C385.564 235.767 385.137 208.221 375.989 171.521V171.521ZM244.675 345.609C254.165 345.609 261.859 353.394 261.859 362.975C261.859 372.642 254.165 380.427 244.675 380.427C235.271 380.427 227.491 372.557 227.491 362.975C227.577 353.308 235.271 345.609 244.675 345.609ZM143.454 212.242H234.758C260.149 212.242 280.41 191.283 280.41 165.79V78.6175C280.41 53.8089 259.551 35.2452 234.758 31.0534C204.152 26.0061 170.896 26.2628 143.454 31.1389C104.812 37.9827 97.8014 52.269 97.8014 78.703V113.521H189.191V125.155H63.5195C36.9318 125.155 13.6782 141.152 6.41149 171.521C-1.96663 206.339 -2.30859 228.068 6.41149 264.425C12.9088 291.458 28.3827 310.792 54.9704 310.792H86.3456V269.045C86.3456 238.847 112.42 212.242 143.454 212.242ZM137.726 90.2518C128.236 90.2518 120.542 82.4671 120.542 72.8858C120.628 63.219 128.236 55.4343 137.726 55.4343C147.13 55.4343 154.909 63.3046 154.909 72.8858C154.909 82.4671 147.215 90.2518 137.726 90.2518V90.2518Z" fill="white"/>
</g>
<defs>
<clipPath id="clip0">
<rect width="383" height="438" fill="white"/>
</clipPath>
</defs>
</svg>
