<svg width="155" height="155" viewBox="0 0 155 155" fill="none" xmlns="http://www.w3.org/2000/svg">
<path d="M126.604 53.6445C124.969 53.0996 123.334 52.585 121.699 52.1006C121.972 50.9805 122.214 49.8603 122.456 48.7402C126.18 30.6973 123.728 16.1963 115.463 11.4131C107.501 6.8418 94.5137 11.5947 81.375 23.0381C80.0732 24.1582 78.8018 25.3389 77.5908 26.5195C76.7734 25.7324 75.9258 24.9453 75.0781 24.1885C61.3037 11.958 47.499 6.81152 39.2344 11.625C31.3027 16.2266 28.9414 29.8799 32.2715 46.9541C32.6045 48.6494 32.9678 50.3145 33.3916 52.0098C31.4541 52.5547 29.5469 53.1602 27.7607 53.7959C11.5947 59.3965 0 68.2363 0 77.3789C0 86.8242 12.3516 96.2998 29.1533 102.052C30.5156 102.506 31.8779 102.96 33.2705 103.354C32.8164 105.17 32.4229 106.956 32.0596 108.803C28.8809 125.604 31.3633 138.925 39.2949 143.496C47.4688 148.219 61.2129 143.375 74.5937 131.659C75.6533 130.721 76.7129 129.752 77.7725 128.723C79.1045 130.024 80.4971 131.266 81.8896 132.477C94.8467 143.617 107.652 148.128 115.554 143.557C123.728 138.834 126.392 124.515 122.94 107.077C122.668 105.745 122.365 104.383 122.032 102.99C123.001 102.718 123.939 102.415 124.878 102.112C142.346 96.3301 155 86.9756 155 77.3789C155 68.2061 143.072 59.3057 126.604 53.6445V53.6445ZM85.6436 27.9424C96.9053 18.1338 107.41 14.2891 112.193 17.0439C117.31 19.9805 119.277 31.8477 116.068 47.4385C115.856 48.4678 115.645 49.4668 115.372 50.4658C108.651 48.9521 101.84 47.8623 94.998 47.2568C91.0625 41.626 86.7637 36.2373 82.1016 31.1816C83.2822 30.0615 84.4326 29.002 85.6436 27.9424V27.9424ZM50.6172 93.0908C52.1611 95.7246 53.7354 98.3584 55.4004 100.932C50.6777 100.417 45.9854 99.6602 41.3535 98.6611C42.6855 94.3018 44.3506 89.791 46.2881 85.1894C47.6807 87.8535 49.1035 90.4873 50.6172 93.0908V93.0908ZM41.4443 56.6719C45.8037 55.7031 50.4355 54.916 55.249 54.3105C53.6445 56.8232 52.0703 59.3965 50.5869 62C49.1035 64.5732 47.6504 67.207 46.2881 69.8711C44.3809 65.3603 42.7764 60.9404 41.4443 56.6719ZM49.7393 77.5303C51.7373 73.3525 53.917 69.2656 56.2178 65.2393C58.5186 61.2129 61.001 57.3076 63.6045 53.4629C68.1455 53.1299 72.7773 52.9482 77.5 52.9482C82.2227 52.9482 86.8848 53.1299 91.3955 53.4629C93.9687 57.2773 96.4209 61.1826 98.752 65.1787C101.083 69.1748 103.263 73.2617 105.321 77.4092C103.293 81.5869 101.113 85.7041 98.7822 89.7607C96.4814 93.7871 94.0293 97.6924 91.4561 101.567C86.9453 101.9 82.2529 102.052 77.5 102.052C72.7471 102.052 68.1455 101.9 63.6953 101.628C61.0615 97.7832 58.5791 93.8477 56.248 89.8213C53.917 85.7949 51.7676 81.708 49.7393 77.5303ZM104.413 93.0303C105.957 90.3662 107.41 87.6719 108.833 84.9473C110.771 89.3369 112.466 93.7871 113.949 98.3584C109.257 99.418 104.504 100.235 99.7207 100.78C101.355 98.2373 102.899 95.6338 104.413 93.0303ZM108.772 69.8711C107.35 67.207 105.896 64.543 104.383 61.9395C102.899 59.3662 101.355 56.8232 99.751 54.3105C104.625 54.916 109.287 55.7334 113.646 56.7324C112.254 61.2129 110.619 65.5723 108.772 69.8711V69.8711ZM77.5606 35.8135C80.7393 39.2646 83.7363 42.8975 86.5215 46.6514C80.5273 46.3789 74.5029 46.3789 68.5088 46.6514C71.4756 42.7461 74.5332 39.1133 77.5606 35.8135ZM42.4434 17.2559C47.5293 14.2891 58.8213 18.5273 70.7188 29.0625C71.4756 29.7285 72.2324 30.4551 73.0195 31.1816C68.3271 36.2373 63.998 41.626 60.0322 47.2568C53.1904 47.8623 46.4092 48.9219 39.6885 50.4053C39.2949 48.8613 38.9619 47.2871 38.6289 45.7129C35.7832 31.0605 37.6602 20.0107 42.4434 17.2559V17.2559ZM35.0264 97.0566C33.7549 96.6934 32.5137 96.2998 31.2725 95.876C24.8242 93.8477 17.498 90.6387 12.2002 86.4307C9.14258 84.3115 7.08398 81.042 6.50879 77.3789C6.50879 71.8389 16.0752 64.7549 29.8799 59.9414C31.6055 59.3359 33.3613 58.791 35.1172 58.2764C37.1758 64.8457 39.6582 71.2939 42.5342 77.5303C39.6279 83.8574 37.1152 90.3965 35.0264 97.0566V97.0566ZM70.3252 126.725C65.3301 131.296 59.5478 134.929 53.251 137.411C49.8906 139.016 46.0156 139.167 42.5645 137.805C37.751 135.02 35.7529 124.333 38.4775 109.953C38.8105 108.258 39.1738 106.562 39.5977 104.897C46.3789 106.351 53.2207 107.35 60.1533 107.864C64.1494 113.525 68.5391 118.944 73.2314 124.03C72.2627 124.969 71.2939 125.877 70.3252 126.725ZM77.7422 119.368C74.6543 116.038 71.5664 112.345 68.5693 108.379C71.4756 108.5 74.4727 108.561 77.5 108.561C80.6182 108.561 83.6758 108.5 86.7031 108.349C83.918 112.193 80.9209 115.856 77.7422 119.368V119.368ZM117.31 128.45C117.037 132.144 115.221 135.595 112.314 137.926C107.501 140.711 97.2383 137.078 86.1582 127.572C84.8867 126.482 83.6152 125.302 82.3135 124.091C86.9453 118.975 91.2139 113.556 95.0889 107.864C102.021 107.289 108.924 106.229 115.735 104.686C116.038 105.927 116.311 107.168 116.553 108.379C118.036 114.918 118.278 121.729 117.31 128.45V128.45ZM122.819 95.9062C121.972 96.1787 121.124 96.4512 120.246 96.6934C118.127 90.0937 115.523 83.6455 112.526 77.3789C115.433 71.2031 117.885 64.8457 119.943 58.3369C121.518 58.791 123.031 59.2754 124.484 59.7598C138.592 64.6035 148.491 71.8086 148.491 77.3184C148.491 83.2519 137.926 90.9111 122.819 95.9062ZM77.5 91.3652C85.1592 91.3652 91.3652 85.1592 91.3652 77.5C91.3652 69.8408 85.1592 63.6348 77.5 63.6348C69.8408 63.6348 63.6348 69.8408 63.6348 77.5C63.6348 85.1592 69.8408 91.3652 77.5 91.3652Z" fill="white"/>
</svg>
